<svg xmlns="http://www.w3.org/2000/svg" width="512" height="512" viewBox="0 0 108 108">
  <!-- Background -->
  <path fill="#0A1A2E" d="M0,0 L108,0 L108,108 L0,108 Z"/>
  <path fill="#0D2240" d="M0,0 L108,0 L108,72 C108,72 84,108 54,108 L0,108 Z"/>
  <path fill="#0A84FF" fill-opacity="0.12" d="M54,20 C72,20 88,36 88,54 C88,72 72,88 54,88 C36,88 20,72 20,54 C20,36 36,20 54,20 Z"/>

  <!-- Foreground (shifted +2 Y) -->
  <g transform="translate(0,2)">
    <!-- Left earbud -->
    <path fill="#FFFFFF" d="M38,28 C48,28 50,34 50,42 C50,49 47,52 43,54 C42,55 42,56 42,58 L42,68 C42,71 40,73 38,73 C36,73 34,71 34,68 L34,58 C34,56 34,55 33,54 C29,52 26,49 26,42 C26,34 28,28 38,28 Z"/>
    <path fill="#E0E0E0" d="M35,40 C35,38.34 36.34,37 38,37 C39.66,37 41,38.34 41,40 C41,41.66 39.66,43 38,43 C36.34,43 35,41.66 35,40 Z"/>
    <path fill="#D0D0D0" d="M36.5,40 A1.5,2.5 0 1,1 39.5,40 A1.5,2.5 0 1,1 36.5,40 Z"/>

    <!-- Right earbud -->
    <path fill="#FFFFFF" d="M70,28 C80,28 82,34 82,42 C82,49 79,52 75,54 C74,55 74,56 74,58 L74,68 C74,71 72,73 70,73 C68,73 66,71 66,68 L66,58 C66,56 66,55 65,54 C61,52 58,49 58,42 C58,34 60,28 70,28 Z"/>
    <path fill="#E0E0E0" d="M67,40 C67,38.34 68.34,37 70,37 C71.66,37 73,38.34 73,40 C73,41.66 71.66,43 70,43 C68.34,43 67,41.66 67,40 Z"/>
    <path fill="#D0D0D0" d="M68.5,40 A1.5,2.5 0 1,1 71.5,40 A1.5,2.5 0 1,1 68.5,40 Z"/>
  </g>
</svg>
