<svg xmlns="http://www.w3.org/2000/svg" width="512" height="512" viewBox="0 0 512 512" role="img" aria-label="LightPods icon">
  <defs>
    <linearGradient id="bg" x1="72" y1="48" x2="440" y2="464" gradientUnits="userSpaceOnUse">
      <stop offset="0" stop-color="#C7FFF3"/>
      <stop offset="0.52" stop-color="#74F8E4"/>
      <stop offset="1" stop-color="#CCE5FF"/>
    </linearGradient>
    <linearGradient id="case" x1="164" y1="226" x2="348" y2="354" gradientUnits="userSpaceOnUse">
      <stop offset="0" stop-color="#FFFFFF"/>
      <stop offset="1" stop-color="#DDE8E4"/>
    </linearGradient>
    <filter id="softShadow" x="-20%" y="-20%" width="140%" height="150%" color-interpolation-filters="sRGB">
      <feDropShadow dx="0" dy="18" stdDeviation="18" flood-color="#003733" flood-opacity="0.24"/>
    </filter>
  </defs>

  <rect width="512" height="512" rx="118" fill="url(#bg)"/>
  <circle cx="386" cy="112" r="88" fill="#FFFFFF" opacity="0.26"/>
  <circle cx="98" cy="396" r="124" fill="#006A60" opacity="0.10"/>
  <path d="M120 154C164 100 244 78 314 104C382 130 424 198 412 268" fill="none" stroke="#006A60" stroke-width="24" stroke-linecap="round" opacity="0.20"/>
  <path d="M152 174C188 136 244 123 294 141C345 159 379 206 378 258" fill="none" stroke="#006A60" stroke-width="18" stroke-linecap="round" opacity="0.28"/>

  <g filter="url(#softShadow)">
    <rect x="154" y="232" width="204" height="122" rx="44" fill="url(#case)"/>
    <path d="M176 271H336" stroke="#B6C6C1" stroke-width="7" stroke-linecap="round" opacity="0.65"/>
    <circle cx="256" cy="306" r="8" fill="#006A60"/>
  </g>

  <g filter="url(#softShadow)">
    <path d="M161 155C130 155 112 174 112 205C112 236 131 252 161 252C191 252 210 236 210 205C210 174 192 155 161 155Z" fill="#FFFFFF"/>
    <path d="M178 238L190 340C193 365 179 382 159 382C141 382 129 368 132 346L145 244Z" fill="#FFFFFF"/>
    <path d="M141 191C151 181 173 180 184 190" stroke="#1F2A27" stroke-width="7" stroke-linecap="round"/>

    <path d="M351 155C320 155 302 174 302 205C302 236 321 252 351 252C381 252 400 236 400 205C400 174 382 155 351 155Z" fill="#FFFFFF"/>
    <path d="M334 238L322 340C319 365 333 382 353 382C371 382 383 368 380 346L367 244Z" fill="#FFFFFF"/>
    <path d="M329 190C341 180 363 181 373 191" stroke="#1F2A27" stroke-width="7" stroke-linecap="round"/>
  </g>

  <rect x="210" y="389" width="92" height="24" rx="12" fill="#006A60"/>
  <rect x="310" y="396" width="16" height="10" rx="5" fill="#006A60"/>
</svg>
